<?xml version="1.0" standalone="no"?>
<!DOCTYPE svg PUBLIC "-//W3C//DTD SVG 20010904//EN"
 "http://www.w3.org/TR/2001/REC-SVG-20010904/DTD/svg10.dtd">
<svg version="1.0" xmlns="http://www.w3.org/2000/svg"
 width="512.000000pt" height="512.000000pt" viewBox="0 0 512.000000 512.000000"
 preserveAspectRatio="xMidYMid meet">
<metadata>
Created by potrace 1.11, written by Peter Selinger 2001-2013
</metadata>
<g transform="translate(0.000000,512.000000) scale(0.100000,-0.100000)"
fill="#000000" stroke="none">
<path d="M0 2560 l0 -2560 2560 0 2560 0 0 2560 0 2560 -2560 0 -2560 0 0
-2560z m3948 1459 c144 -15 282 -45 417 -90 66 -22 126 -43 132 -47 10 -6 0
-43 -37 -147 -28 -76 -52 -141 -54 -142 -2 -2 -57 15 -122 37 -195 68 -324 92
-514 97 -192 6 -273 -7 -385 -61 -135 -65 -204 -155 -226 -296 -24 -160 21
-300 133 -405 83 -79 228 -153 478 -245 202 -75 406 -172 505 -241 159 -109
257 -254 291 -428 20 -102 14 -293 -11 -386 -69 -253 -285 -449 -584 -529
-148 -40 -258 -49 -509 -43 -280 6 -429 29 -609 93 l-73 26 0 164 c0 154 1
164 18 155 34 -18 203 -71 302 -96 251 -60 589 -72 763 -26 168 44 286 133
345 258 25 54 27 67 27 193 0 126 -2 139 -27 192 -71 151 -204 237 -613 393
-319 121 -470 208 -593 340 -121 130 -171 261 -179 476 -10 241 37 371 186
519 127 126 280 200 488 235 97 16 322 18 451 4z m-3106 -734 l3 -706 645 706
645 705 192 0 c106 0 193 -2 193 -5 0 -3 -257 -282 -571 -621 -554 -598 -570
-616 -555 -638 8 -13 276 -377 595 -810 320 -433 581 -789 581 -791 0 -3 -87
-5 -193 -5 l-193 0 -523 696 c-481 639 -524 694 -541 682 -10 -7 -77 -65 -149
-128 l-129 -115 -4 -565 -3 -565 -165 0 -165 0 -3 1433 -2 1432 170 0 170 0 2
-705z"/>
</g>
</svg>
